<svg width="19" height="22" viewBox="0 0 19 22" fill="none" xmlns="http://www.w3.org/2000/svg">
<path d="M14 16.985C14 19.427 12.86 21.184 10.993 21.184C10.018 21.184 9.65204 20.641 9.30304 19.388L9.09604 18.616C8.99504 18.257 8.81904 17.646 8.56904 16.786C8.56231 16.7626 8.5522 16.7404 8.53903 16.72L5.67304 12.235C4.99492 11.1738 3.99421 10.3581 2.81804 9.90799L2.34504 9.72699C1.74127 9.49548 1.23839 9.05862 0.924746 8.49315C0.611102 7.92767 0.506755 7.26976 0.630035 6.63499L1.03404 4.54899C1.15218 3.93934 1.44253 3.37629 1.87069 2.9265C2.29886 2.47671 2.84693 2.15901 3.45004 2.01099L11.078 0.140992C12.2941 -0.15693 13.5786 0.0373331 14.6523 0.681533C15.7259 1.32573 16.5017 2.36776 16.811 3.58099L18.226 9.13099C18.3484 9.61088 18.3595 10.1124 18.2584 10.5972C18.1573 11.082 17.9468 11.5373 17.6429 11.9284C17.339 12.3194 16.9497 12.6358 16.5049 12.8534C16.06 13.071 15.5713 13.1841 15.076 13.184H13.254C13.75 14.816 14 16.076 14 16.985ZM2.10004 6.92099C2.04414 7.20951 2.0917 7.5085 2.23434 7.76544C2.37699 8.02239 2.6056 8.22086 2.88004 8.32599L3.35404 8.50699C4.82968 9.07205 6.08517 10.0955 6.93604 11.427L9.80304 15.913C9.89304 16.053 9.96204 16.206 10.008 16.367L10.56 18.287L10.772 19.079C10.912 19.567 10.982 19.684 10.992 19.684C11.86 19.684 12.499 18.7 12.499 16.985C12.499 16.101 12.173 14.65 11.515 12.67C11.4777 12.5574 11.4676 12.4375 11.4856 12.3202C11.5036 12.2029 11.5492 12.0916 11.6186 11.9953C11.688 11.8991 11.7793 11.8207 11.8848 11.7666C11.9904 11.7124 12.1074 11.6841 12.226 11.684H15.076C15.3427 11.6839 15.6058 11.6228 15.8453 11.5055C16.0848 11.3883 16.2943 11.2178 16.4579 11.0073C16.6215 10.7967 16.7348 10.5515 16.7893 10.2905C16.8437 10.0294 16.8378 9.75941 16.772 9.50099L15.357 3.95199C15.1455 3.12174 14.6146 2.40862 13.8799 1.96778C13.1452 1.52693 12.2662 1.39404 11.434 1.59799L3.80604 3.46799C3.48122 3.54771 3.18606 3.71883 2.95548 3.9611C2.72491 4.20337 2.56859 4.50664 2.50504 4.83499L2.10004 6.92099Z" fill="#767680"/>
</svg>
