<svg width="18" height="22" viewBox="0 0 18 22" fill="none" xmlns="http://www.w3.org/2000/svg">
<path d="M12.0955 13.689C12.5547 15.1713 12.7873 16.4697 12.7873 17.5885C12.7873 20.0794 11.85 22 10.2919 22C9.44644 22 9.18493 21.4765 8.85754 20.1853C8.8755 20.2528 8.69484 19.5268 8.64293 19.3325C8.54212 18.9596 8.36644 18.3249 8.11691 17.4306C8.11013 17.4067 8.10004 17.3839 8.08696 17.3631L5.22626 12.7032C4.54918 11.6014 3.55036 10.7545 2.37654 10.2871L1.12186 9.78646C0.738368 9.63357 0.418898 9.34494 0.219564 8.97129C0.0202309 8.59763 -0.0462196 8.16283 0.0318837 7.74325L0.716615 4.06714C0.798302 3.62868 0.998999 3.22376 1.29495 2.90031C1.5909 2.57687 1.9697 2.34844 2.38652 2.24207L10.6213 0.141731C11.8351 -0.167734 13.1173 0.0340548 14.1889 0.703212C15.2605 1.37237 16.0349 2.45477 16.3437 3.71501L17.9148 10.1272C18.0182 10.549 18.0276 10.9898 17.9423 11.416C17.857 11.8421 17.6793 12.2424 17.4226 12.5861C17.166 12.9299 16.8372 13.208 16.4615 13.3994C16.0858 13.5907 15.673 13.6901 15.2547 13.6901L12.0955 13.689Z" fill="#1B2870"/>
</svg>
