<svg width="20" height="20" viewBox="0 0 20 20" fill="none" xmlns="http://www.w3.org/2000/svg">
<path d="M8.109 1.22001C8.844 -0.406994 11.156 -0.406994 11.891 1.22001C12.041 1.55201 12.456 1.66301 12.751 1.45101C14.203 0.410006 16.204 1.56501 16.028 3.34301C16.0196 3.42782 16.0301 3.51344 16.0588 3.5937C16.0875 3.67395 16.1336 3.74684 16.1939 3.80711C16.2542 3.86737 16.3271 3.91351 16.4073 3.9422C16.4876 3.97089 16.5732 3.98141 16.658 3.97301C18.435 3.79601 19.59 5.79701 18.548 7.24801C18.337 7.54401 18.448 7.95801 18.779 8.10801C20.407 8.84401 20.407 11.156 18.779 11.891C18.7015 11.9262 18.6327 11.9782 18.5777 12.0431C18.5227 12.1081 18.4827 12.1844 18.4607 12.2666C18.4387 12.3489 18.4352 12.435 18.4505 12.5187C18.4658 12.6025 18.4994 12.6818 18.549 12.751C19.59 14.203 18.435 16.204 16.657 16.028C16.5722 16.0196 16.4866 16.0301 16.4063 16.0588C16.3261 16.0875 16.2532 16.1336 16.1929 16.1939C16.1326 16.2542 16.0865 16.3271 16.0578 16.4073C16.0291 16.4876 16.0186 16.5732 16.027 16.658C16.204 18.435 14.203 19.59 12.752 18.548C12.6827 18.4984 12.6034 18.4649 12.5196 18.4497C12.4358 18.4345 12.3496 18.438 12.2674 18.4601C12.1851 18.4822 12.1088 18.5223 12.0439 18.5774C11.979 18.6326 11.9271 18.7014 11.892 18.779C11.156 20.407 8.844 20.407 8.109 18.779C8.0738 18.7015 8.02185 18.6327 7.9569 18.5777C7.89195 18.5227 7.81561 18.4827 7.73336 18.4607C7.65112 18.4387 7.56503 18.4352 7.48128 18.4505C7.39752 18.4658 7.31819 18.4994 7.249 18.549C5.797 19.59 3.796 18.435 3.972 16.657C3.98041 16.5722 3.96989 16.4866 3.9412 16.4063C3.91251 16.3261 3.86637 16.2532 3.8061 16.1929C3.74584 16.1326 3.67295 16.0865 3.59269 16.0578C3.51244 16.0291 3.42681 16.0186 3.342 16.027C1.565 16.204 0.41 14.203 1.452 12.752C1.50156 12.6827 1.53515 12.6034 1.55034 12.5196C1.56554 12.4358 1.56196 12.3496 1.53987 12.2674C1.51777 12.1851 1.47772 12.1088 1.42258 12.0439C1.36744 11.979 1.2986 11.9271 1.221 11.892C-0.407 11.156 -0.407 8.84401 1.221 8.10901C1.29851 8.0738 1.36726 8.02186 1.42229 7.95691C1.47733 7.89195 1.51728 7.81561 1.53927 7.73337C1.56127 7.65113 1.56476 7.56503 1.5495 7.48128C1.53423 7.39753 1.50059 7.3182 1.451 7.24901C0.41 5.79701 1.565 3.79601 3.343 3.97201C3.42781 3.98041 3.51344 3.96989 3.59369 3.9412C3.67395 3.91251 3.74684 3.86637 3.8071 3.80611C3.86737 3.74584 3.91351 3.67295 3.9422 3.5927C3.97089 3.51244 3.98141 3.42682 3.973 3.34201C3.796 1.56501 5.797 0.410006 7.248 1.45201C7.544 1.66301 7.958 1.55201 8.108 1.22101L8.109 1.22001ZM10.525 1.83901C10.4794 1.73797 10.4056 1.65223 10.3125 1.59209C10.2194 1.53196 10.1109 1.49997 10 1.49997C9.88914 1.49997 9.78065 1.53196 9.68752 1.59209C9.5944 1.65223 9.52061 1.73797 9.475 1.83901C9.34827 2.11868 9.16108 2.36676 8.92691 2.56537C8.69275 2.76398 8.41745 2.90817 8.12084 2.98756C7.82423 3.06695 7.51371 3.07955 7.21164 3.02447C6.90958 2.96938 6.62349 2.84798 6.374 2.66901C6.28398 2.60441 6.17725 2.56714 6.06659 2.56168C5.95593 2.55621 5.84604 2.58277 5.75009 2.63819C5.65415 2.6936 5.57622 2.77551 5.52566 2.87409C5.47509 2.97268 5.45403 3.08375 5.465 3.19401C5.49534 3.49966 5.45748 3.80824 5.35414 4.09749C5.25081 4.38674 5.08457 4.64946 4.86743 4.8667C4.65029 5.08394 4.38764 5.25029 4.09843 5.35375C3.80923 5.45721 3.50067 5.49521 3.195 5.46501C3.08475 5.45404 2.97367 5.4751 2.87509 5.52566C2.7765 5.57623 2.6946 5.65415 2.63918 5.7501C2.58377 5.84604 2.5572 5.95593 2.56267 6.06659C2.56814 6.17725 2.6054 6.28399 2.67 6.37401C2.84894 6.62356 2.9703 6.90971 3.02531 7.21182C3.08033 7.51394 3.06763 7.82449 2.98815 8.12111C2.90866 8.41772 2.76436 8.69301 2.56565 8.92713C2.36693 9.16125 2.11876 9.34837 1.839 9.47501C1.73796 9.52061 1.65223 9.5944 1.59209 9.68753C1.53195 9.78065 1.49996 9.88915 1.49996 10C1.49996 10.1109 1.53195 10.2194 1.59209 10.3125C1.65223 10.4056 1.73796 10.4794 1.839 10.525C2.11867 10.6517 2.36675 10.8389 2.56536 11.0731C2.76397 11.3073 2.90817 11.5826 2.98755 11.8792C3.06694 12.1758 3.07955 12.4863 3.02446 12.7884C2.96938 13.0904 2.84798 13.3765 2.669 13.626C2.6044 13.716 2.56714 13.8228 2.56167 13.9334C2.5562 14.0441 2.58277 14.154 2.63818 14.2499C2.6936 14.3459 2.7755 14.4238 2.87409 14.4743C2.97267 14.5249 3.08375 14.546 3.194 14.535C4.498 14.405 5.594 15.502 5.465 16.805C5.45403 16.9153 5.47509 17.0263 5.52566 17.1249C5.57622 17.2235 5.65415 17.3054 5.75009 17.3608C5.84604 17.4162 5.95593 17.4428 6.06659 17.4373C6.17725 17.4319 6.28398 17.3946 6.374 17.33C6.62362 17.1511 6.90983 17.0298 7.21199 16.9748C7.51415 16.9199 7.82474 16.9327 8.12136 17.0123C8.41799 17.0918 8.69326 17.2363 8.92734 17.4351C9.16141 17.6339 9.34846 17.8822 9.475 18.162C9.52061 18.263 9.5944 18.3488 9.68752 18.4089C9.78065 18.4691 9.88914 18.501 10 18.501C10.1109 18.501 10.2194 18.4691 10.3125 18.4089C10.4056 18.3488 10.4794 18.263 10.525 18.162C10.6515 17.8822 10.8386 17.6339 11.0727 17.4351C11.3067 17.2363 11.582 17.0918 11.8786 17.0123C12.1753 16.9327 12.4859 16.9199 12.788 16.9748C13.0902 17.0298 13.3764 17.1511 13.626 17.33C13.7159 17.3945 13.8226 17.4318 13.9331 17.4373C14.0437 17.4427 14.1535 17.4163 14.2494 17.361C14.3453 17.3057 14.4232 17.224 14.4739 17.1255C14.5245 17.0271 14.5458 16.9162 14.535 16.806C14.5047 16.5004 14.5425 16.1918 14.6459 15.9025C14.7492 15.6133 14.9154 15.3506 15.1326 15.1333C15.3497 14.9161 15.6124 14.7497 15.9016 14.6463C16.1908 14.5428 16.4993 14.5048 16.805 14.535C16.9153 14.546 17.0263 14.5249 17.1249 14.4743C17.2235 14.4238 17.3054 14.3459 17.3608 14.2499C17.4162 14.154 17.4428 14.0441 17.4373 13.9334C17.4319 13.8228 17.3946 13.716 17.33 13.626C17.1511 13.3764 17.0298 13.0902 16.9748 12.788C16.9199 12.4859 16.9327 12.1753 17.0123 11.8786C17.0918 11.582 17.2362 11.3067 17.4351 11.0727C17.6339 10.8386 17.8822 10.6515 18.162 10.525C18.263 10.4794 18.3488 10.4056 18.4089 10.3125C18.469 10.2194 18.501 10.1109 18.501 10C18.501 9.88915 18.469 9.78065 18.4089 9.68753C18.3488 9.5944 18.263 9.52061 18.162 9.47501C17.8822 9.34847 17.6339 9.16142 17.4351 8.92734C17.2362 8.69327 17.0918 8.41799 17.0123 8.12137C16.9327 7.82474 16.9199 7.51416 16.9748 7.21199C17.0298 6.90983 17.1511 6.62363 17.33 6.37401C17.3945 6.28406 17.4318 6.17743 17.4372 6.06687C17.4427 5.95631 17.4163 5.84652 17.361 5.75062C17.3057 5.65472 17.224 5.57678 17.1255 5.52612C17.0271 5.47547 16.9162 5.45425 16.806 5.46501C16.5003 5.49535 16.1918 5.45748 15.9025 5.35415C15.6133 5.25081 15.3505 5.08458 15.1333 4.86744C14.9161 4.65029 14.7497 4.38765 14.6463 4.09844C14.5428 3.80923 14.5048 3.50067 14.535 3.19501C14.546 3.08475 14.5249 2.97368 14.4743 2.87509C14.4238 2.77651 14.3459 2.6946 14.2499 2.63919C14.154 2.58377 14.0441 2.55721 13.9334 2.56267C13.8228 2.56814 13.716 2.60541 13.626 2.67001C13.3764 2.84895 13.0903 2.9703 12.7882 3.02532C12.4861 3.08033 12.1755 3.06764 11.8789 2.98815C11.5823 2.90867 11.307 2.76437 11.0729 2.56565C10.8388 2.36694 10.6516 2.11876 10.525 1.83901ZM10 3.96501C9.35977 3.96501 8.74576 4.21934 8.29304 4.67205C7.84033 5.12476 7.586 5.73877 7.586 6.37901C7.586 7.01924 7.84033 7.63325 8.29304 8.08596C8.74576 8.53867 9.35977 8.79301 10 8.79301C10.6402 8.79301 11.2542 8.53867 11.707 8.08596C12.1597 7.63325 12.414 7.01924 12.414 6.37901C12.414 5.73877 12.1597 5.12476 11.707 4.67205C11.2542 4.21934 10.6402 3.96501 10 3.96501ZM13.018 10H6.982C5.982 10 5.172 10.81 5.172 11.81C5.172 13.158 5.726 14.237 6.635 14.967C7.53 15.685 8.729 16.035 10 16.035C11.271 16.035 12.47 15.685 13.365 14.967C14.274 14.237 14.828 13.157 14.828 11.811C14.828 10.811 14.018 10 13.018 10Z" fill="white"/>
</svg>
