<svg width="103" height="25" viewBox="0 0 103 25" fill="none" xmlns="http://www.w3.org/2000/svg">
<path d="M0.25 1.45731H2.47913V23.6224H0.25V1.45731Z" fill="white"/>
<path d="M7.18994 7.21939H9.29289V10.1635C10.1341 9.02792 11.0594 8.18674 12.1108 7.63998C13.1203 7.09321 14.2558 6.7988 15.4335 6.7988C16.6532 6.7988 17.7467 7.09321 18.7141 7.72409C19.6814 8.35498 20.3544 9.19616 20.817 10.2476C21.2797 11.2991 21.49 12.9394 21.49 15.1685V23.5803H19.387V15.7994C19.387 13.9068 19.3029 12.645 19.1347 12.0141C18.8823 10.9206 18.4197 10.1215 17.7467 9.57468C17.0738 9.02792 16.1485 8.73351 15.055 8.73351C13.7932 8.73351 12.6576 9.15409 11.6482 9.99527C10.6388 10.8365 9.96583 11.8879 9.67142 13.1076C9.46113 13.9068 9.37701 15.4209 9.37701 17.5659V23.5803H7.27406V7.21939H7.18994Z" fill="white"/>
<path d="M32.7616 0.910549V2.97144C32.0045 2.63497 31.3316 2.46673 30.7848 2.46673C30.3642 2.46673 30.0277 2.55085 29.7754 2.71908C29.523 2.88732 29.3127 3.05556 29.2707 3.30791C29.1866 3.51821 29.1445 4.10703 29.1445 5.03232V7.26145H32.5513V9.06999H29.1445V23.6224H27.0416V9.06999H24.8545V7.26145H26.9995V4.69586C26.9995 3.51821 27.1257 2.67703 27.336 2.17232C27.5463 1.66761 27.9248 1.24702 28.4295 0.952608C28.9342 0.658195 29.5651 0.48996 30.3222 0.48996C30.9951 0.48996 31.7942 0.616137 32.7616 0.910549Z" fill="white"/>
<path d="M43.4443 6.7988C45.9678 6.7988 48.0708 7.72409 49.7111 9.53263C51.2252 11.215 51.9823 13.1918 51.9823 15.4629C51.9823 17.7341 51.1831 19.753 49.5849 21.4774C47.9867 23.2018 45.9258 24.043 43.4443 24.043C40.9207 24.043 38.8599 23.2018 37.2616 21.4774C35.6634 19.753 34.8643 17.7762 34.8643 15.4629C34.8643 13.1918 35.6213 11.215 37.1354 9.57468C38.8178 7.72409 40.9207 6.7988 43.4443 6.7988ZM43.4443 8.90175C41.6778 8.90175 40.2057 9.53263 38.944 10.8365C37.6822 12.1403 37.0513 13.6965 37.0513 15.5471C37.0513 16.7247 37.3457 17.8182 37.8925 18.8697C38.4813 19.8791 39.2384 20.6782 40.2057 21.225C41.1731 21.7718 42.2666 22.0662 43.4443 22.0662C44.6219 22.0662 45.6734 21.7718 46.6828 21.225C47.6502 20.6782 48.4493 19.8791 48.9961 18.8697C49.5849 17.8603 49.8372 16.7247 49.8372 15.5471C49.8372 13.6965 49.2064 12.1403 47.9446 10.8365C46.6828 9.53263 45.1687 8.90175 43.4443 8.90175Z" fill="white"/>
<path d="M64.1371 9.02793L62.7912 10.4159C61.6557 9.32234 60.5621 8.77558 59.4686 8.77558C58.7957 8.77558 58.2068 8.98587 57.7021 9.44851C57.1974 9.91116 56.9871 10.4159 56.9871 11.0468C56.9871 11.5935 57.1974 12.0982 57.5759 12.5609C57.9965 13.0656 58.8377 13.6124 60.0995 14.2853C61.6557 15.0844 62.7492 15.8835 63.296 16.6406C63.8427 17.3977 64.1371 18.2809 64.1371 19.2062C64.1371 20.5521 63.6745 21.6877 62.7071 22.613C61.7818 23.5383 60.5621 24.0009 59.1742 24.0009C58.2489 24.0009 57.3236 23.7906 56.4824 23.37C55.6412 22.9494 54.9262 22.4027 54.3374 21.6877L55.6833 20.1735C56.7768 21.3933 57.9124 21.9821 59.0901 21.9821C59.9312 21.9821 60.6462 21.7297 61.2351 21.183C61.8239 20.6362 62.1183 20.0053 62.1183 19.2903C62.1183 18.7015 61.908 18.1547 61.5295 17.6921C61.1509 17.2294 60.2677 16.6406 58.8798 15.9256C57.4077 15.1685 56.3983 14.4115 55.8515 13.6544C55.3048 12.8973 55.0524 12.0562 55.0524 11.0888C55.0524 9.82705 55.473 8.81763 56.3142 7.97645C57.1554 7.13527 58.2489 6.75674 59.5527 6.75674C61.0668 6.7988 62.581 7.55586 64.1371 9.02793Z" fill="white"/>
<path d="M67.8809 0.910553H69.9838V10.1635C70.825 9.02793 71.7923 8.18676 72.8018 7.63999C73.8112 7.09322 74.9468 6.79881 76.1244 6.79881C77.3441 6.79881 78.4377 7.09322 79.405 7.72411C80.3724 8.35499 81.0453 9.19617 81.508 10.2476C81.9706 11.2991 82.1809 12.9394 82.1809 15.1685V23.5803H80.078V15.7994C80.078 13.9068 79.9938 12.645 79.8677 12.0141C79.6153 10.9206 79.1527 10.1215 78.4377 9.5747C77.7647 9.02793 76.8394 8.73352 75.7459 8.73352C74.4841 8.73352 73.3485 9.15411 72.3391 9.99529C71.3297 10.8365 70.6568 11.8879 70.3623 13.1077C70.152 13.9068 70.0679 15.3788 70.0679 17.5659V23.5803H67.965V0.910553H67.8809Z" fill="white"/>
<path d="M103 7.21939V23.6224H100.939V20.8044C100.056 21.898 99.0462 22.6971 97.9527 23.2438C96.8591 23.7906 95.6394 24.043 94.3356 24.043C92.0224 24.043 90.0456 23.2018 88.4053 21.5194C86.765 19.8371 85.9238 17.7762 85.9238 15.3788C85.9238 13.0235 86.765 11.0047 88.4053 9.32233C90.0456 7.63998 92.0644 6.7988 94.3777 6.7988C95.7236 6.7988 96.9433 7.09321 98.0368 7.63998C99.1303 8.2288 100.098 9.06998 100.897 10.2056V7.17733H103V7.21939ZM94.588 8.85968C93.4103 8.85968 92.3168 9.1541 91.3494 9.74292C90.34 10.3317 89.583 11.1309 88.9941 12.1823C88.4053 13.2338 88.1109 14.3273 88.1109 15.505C88.1109 16.6406 88.4053 17.7762 88.9941 18.8277C89.583 19.8791 90.3821 20.7203 91.3915 21.2671C92.4009 21.8559 93.4524 22.1503 94.588 22.1503C95.7236 22.1503 96.8171 21.8559 97.8686 21.2671C98.92 20.6782 99.6771 19.8791 100.266 18.9118C100.813 17.9024 101.107 16.8088 101.107 15.5471C101.107 13.6544 100.476 12.0562 99.2144 10.7944C97.9106 9.49057 96.3965 8.85968 94.588 8.85968Z" fill="white"/>
</svg>
