<svg width="17" height="22" viewBox="0 0 17 22" fill="none" xmlns="http://www.w3.org/2000/svg">
<path d="M12.8554 5.01911C12.8554 2.57704 11.7634 0.819999 9.97501 0.819999C9.04106 0.819999 8.69047 1.36301 8.35616 2.61605L8.15788 3.38807C8.06113 3.74708 7.89254 4.35809 7.65307 5.21811C7.64662 5.24146 7.63694 5.2637 7.62433 5.28412L4.879 9.76923C4.22943 10.8305 3.27085 11.6461 2.1442 12.0963L1.69112 12.2773C1.11277 12.5088 0.631062 12.9457 0.330624 13.5112C0.0301856 14.0767 -0.0697684 14.7346 0.0483216 15.3694L0.435312 17.4554C0.548486 18.0651 0.826604 18.6282 1.23675 19.078C1.64689 19.5278 2.17188 19.8455 2.74959 19.9935L10.0564 21.8636C11.2213 22.1615 12.4518 21.9672 13.4802 21.323C14.5086 20.6788 15.2517 19.6367 15.5481 18.4235L16.9035 12.8733C17.0207 12.3934 17.0313 11.8919 16.9345 11.4071C16.8377 10.9222 16.636 10.4669 16.3449 10.0759C16.0538 9.68481 15.6809 9.3684 15.2548 9.15078C14.8286 8.93316 14.3605 8.82009 13.8861 8.82021L12.1408 8.82021C12.6159 7.18817 12.8554 5.92813 12.8554 5.01911ZM1.45643 15.0834C1.40289 14.7948 1.44844 14.4959 1.58508 14.2389C1.72172 13.9819 1.94071 13.7835 2.20359 13.6783L2.65763 13.4973C4.07115 12.9323 5.27378 11.9088 6.08882 10.5773L8.83511 6.09114C8.92132 5.95113 8.98742 5.79813 9.03148 5.63712L9.56024 3.71707L9.76331 2.92505C9.89742 2.43704 9.96447 2.32004 9.97405 2.32004C10.8055 2.32004 11.4176 3.30406 11.4176 5.01911C11.4176 5.90313 11.1053 7.35417 10.475 9.33422C10.4393 9.44686 10.4296 9.56674 10.4469 9.68403C10.4641 9.80132 10.5078 9.91266 10.5742 10.0089C10.6407 10.1052 10.7281 10.1836 10.8293 10.2377C10.9304 10.2918 11.0424 10.3201 11.1561 10.3202L13.8861 10.3202C14.1415 10.3204 14.3936 10.3814 14.623 10.4987C14.8524 10.616 15.0531 10.7864 15.2098 10.997C15.3665 11.2076 15.4751 11.4527 15.5272 11.7138C15.5794 11.9748 15.5737 12.2449 15.5107 12.5033L14.1553 18.0525C13.9526 18.8827 13.4441 19.5959 12.7403 20.0367C12.0366 20.4776 11.1946 20.6105 10.3974 20.4065L3.0906 18.5365C2.77947 18.4567 2.49673 18.2856 2.27586 18.0433C2.055 17.8011 1.90526 17.4978 1.84438 17.1694L1.45643 15.0834Z" fill="#767680"/>
</svg>
