<svg width="19" height="22" viewBox="0 0 19 22" fill="none" xmlns="http://www.w3.org/2000/svg">
<path d="M12.5559 8.00401C13.0159 6.57701 13.2489 5.32701 13.2489 4.25001C13.2489 1.85201 12.3099 0.00300598 10.7489 0.00300598C9.90193 0.00300598 9.63993 0.507006 9.31193 1.75001C9.32993 1.68501 9.14893 2.38401 9.09693 2.57101C8.99593 2.93001 8.81993 3.54101 8.56993 4.40201C8.56314 4.42501 8.55303 4.44691 8.53993 4.46701L5.67393 8.95301C4.9956 10.0138 3.99492 10.8291 2.81893 11.279L1.56193 11.761C1.17772 11.9082 0.857662 12.1861 0.657959 12.5458C0.458257 12.9055 0.391683 13.3241 0.469931 13.728L1.15593 17.267C1.23777 17.6891 1.43884 18.0789 1.73533 18.3903C2.03183 18.7017 2.41134 18.9216 2.82893 19.024L11.0789 21.046C12.295 21.3439 13.5795 21.1497 14.6531 20.5055C15.7268 19.8613 16.5026 18.8192 16.8119 17.606L18.3859 11.433C18.4896 11.0269 18.499 10.6026 18.4136 10.1923C18.3281 9.78201 18.15 9.3967 17.8929 9.06577C17.6358 8.73483 17.3064 8.46705 16.93 8.28286C16.5536 8.09867 16.14 8.00295 15.7209 8.00301L12.5559 8.00401Z" fill="#1B2870"/>
</svg>
