<svg width="16" height="20" viewBox="0 0 16 20" fill="none" xmlns="http://www.w3.org/2000/svg">
<path d="M13.755 12C14.0504 12.0001 14.3428 12.0584 14.6156 12.1716C14.8884 12.2847 15.1363 12.4505 15.345 12.6594C15.5538 12.8684 15.7193 13.1164 15.8322 13.3893C15.9451 13.6622 16.0032 13.9547 16.003 14.25V14.825C16.003 15.719 15.683 16.584 15.103 17.263C13.533 19.096 11.146 20.001 8.00003 20.001C4.85403 20.001 2.46803 19.096 0.902028 17.261C0.322636 16.5824 0.00423557 15.7193 0.00402832 14.827V14.249C0.00402832 13.6525 0.240976 13.0805 0.662745 12.6587C1.08451 12.237 1.65656 12 2.25303 12H13.755ZM13.755 13.5H2.25203C2.1535 13.4999 2.05591 13.5192 1.96486 13.5568C1.87381 13.5945 1.79107 13.6497 1.7214 13.7194C1.65173 13.7891 1.59649 13.8718 1.55885 13.9628C1.52121 14.0539 1.5019 14.1515 1.50203 14.25V14.827C1.50203 15.362 1.69403 15.88 2.04203 16.287C3.29503 17.756 5.26203 18.501 7.99903 18.501C10.738 18.501 12.705 17.756 13.962 16.288C14.3107 15.8803 14.5022 15.3615 14.502 14.825V14.249C14.502 14.0505 14.4233 13.8602 14.283 13.7197C14.1428 13.5793 13.9535 13.5003 13.755 13.5ZM8.00003 0.00500488C8.65664 0.00500487 9.30682 0.134333 9.91344 0.385607C10.5201 0.636881 11.0713 1.00518 11.5356 1.46947C11.9999 1.93376 12.3682 2.48496 12.6194 3.09159C12.8707 3.69822 13 4.3484 13 5.005C13 5.66161 12.8707 6.31179 12.6194 6.91842C12.3682 7.52505 11.9999 8.07625 11.5356 8.54054C11.0713 9.00483 10.5201 9.37313 9.91344 9.6244C9.30682 9.87568 8.65664 10.005 8.00003 10.005C6.67395 10.005 5.40218 9.47822 4.46449 8.54054C3.52681 7.60286 3.00003 6.33109 3.00003 5.005C3.00003 3.67892 3.52681 2.40715 4.46449 1.46947C5.40218 0.531789 6.67395 0.00500488 8.00003 0.00500488ZM8.00003 1.505C7.5404 1.505 7.08528 1.59554 6.66064 1.77143C6.236 1.94732 5.85016 2.20513 5.52515 2.53013C5.20015 2.85514 4.94234 3.24097 4.76645 3.66561C4.59056 4.09025 4.50003 4.54538 4.50003 5.005C4.50003 5.46463 4.59056 5.91976 4.76645 6.3444C4.94234 6.76904 5.20015 7.15487 5.52515 7.47988C5.85016 7.80488 6.236 8.06269 6.66064 8.23858C7.08528 8.41448 7.5404 8.505 8.00003 8.505C8.92829 8.505 9.81852 8.13626 10.4749 7.47988C11.1313 6.8235 11.5 5.93326 11.5 5.005C11.5 4.07675 11.1313 3.18651 10.4749 2.53013C9.81852 1.87375 8.92829 1.505 8.00003 1.505Z" fill="white"/>
</svg>
