<svg width="10" height="9" viewBox="0 0 10 9" fill="none" xmlns="http://www.w3.org/2000/svg">
<path d="M3.28584 4.97777L3.28141 5.21836L3.27221 5.71827C3.26968 5.85575 3.37045 5.97012 3.49614 5.97244L3.95321 5.98085L4.18174 5.98506L4.84591 5.99728C5.57293 6.01066 6.19674 5.49862 6.41568 4.78221C6.46011 4.92993 6.48426 5.0929 6.48087 5.27724C6.46307 6.24427 5.73307 7.01378 4.84893 6.99751L4.16334 6.98489L3.9348 6.98068L3.47774 6.97227C3.35204 6.96996 3.24714 7.08054 3.2446 7.21802L3.2354 7.71794L3.23098 7.95852L1.74438 6.44028L3.28584 4.97777ZM4.19554 5.23518L3.96701 5.23098L3.98081 4.4811C3.9859 4.20459 3.78576 3.97743 3.53294 3.97278L3.48009 3.9718C3.36726 3.96973 3.25787 4.01303 3.17207 4.09428L1.15073 6.0121C1.04022 6.11633 0.976012 6.26674 0.973079 6.42609C0.970146 6.58543 1.02878 6.7381 1.13537 6.84633L3.07356 8.82608C3.16333 8.91681 3.27953 8.96896 3.40237 8.97122C3.67661 8.97627 3.90246 8.7382 3.90798 8.43825L3.921 7.73055L4.14953 7.73476L4.6066 7.74317L4.83513 7.74738C6.09778 7.77062 7.14105 6.67088 7.16646 5.28986C7.18383 4.34627 6.70076 3.73259 6.28852 3.38432C6.20552 3.31403 6.12659 3.25476 6.05321 3.20496C5.99114 3.16162 5.93321 3.12618 5.88514 3.09873C5.83707 3.07127 5.79745 3.05023 5.76914 3.03564C5.738 3.01944 5.70384 3.01256 5.66813 3.0119L5.63242 3.01125C5.49244 3.00867 5.37588 3.13155 5.37306 3.28465C5.37082 3.4065 5.44454 3.51569 5.53314 3.59233C5.53877 3.59712 5.54299 3.60033 5.54862 3.60512C5.57259 3.62275 5.59647 3.64507 5.61886 3.67048C5.63006 3.68319 5.64268 3.69593 5.65382 3.71176C5.66496 3.72759 5.67613 3.74186 5.68727 3.7577C5.71226 3.79722 5.73573 3.84141 5.75624 3.8918C5.79165 3.98622 5.81383 4.10071 5.81122 4.24287C5.80084 4.80684 5.37388 5.25843 4.85683 5.24892L4.65258 5.24516L4.19551 5.23675L4.19554 5.23518ZM7.90652 8.55403C8.475 8.5645 8.94418 8.06992 8.95562 7.44815L9.05223 2.19904C9.06368 1.57727 8.61301 1.06577 8.04454 1.0553L3.24535 0.966975C2.67687 0.956513 2.20769 1.45109 2.19625 2.07286L2.17785 3.07269C2.17402 3.28047 2.32378 3.45044 2.51375 3.45393C2.70371 3.45743 2.85962 3.29308 2.86345 3.08531L2.88185 2.08548C2.88567 1.8777 3.04158 1.71335 3.23155 1.71685L8.03073 1.80518C8.2207 1.80867 8.37046 1.97864 8.36663 2.18642L8.27002 7.43553C8.2662 7.64331 8.11029 7.80766 7.92032 7.80416L7.00619 7.78734C6.81623 7.78384 6.66032 7.94819 6.65649 8.15596C6.65267 8.36374 6.80243 8.53371 6.99239 8.53721L7.90652 8.55403Z" fill="#1B2870"/>
</svg>
