<svg width="19" height="19" viewBox="0 0 19 19" fill="none" xmlns="http://www.w3.org/2000/svg">
<path d="M7.99999 0.75C9.37008 0.749829 10.7122 1.13789 11.8708 1.86922C13.0294 2.60054 13.957 3.64519 14.5462 4.88212C15.1354 6.11905 15.3621 7.49762 15.1999 8.85808C15.0378 10.2186 14.4934 11.5052 13.63 12.569L18.53 17.469C18.6645 17.6027 18.7434 17.7823 18.7508 17.9718C18.7582 18.1613 18.6936 18.3466 18.5699 18.4903C18.4461 18.6341 18.2726 18.7256 18.0841 18.7465C17.8956 18.7674 17.7062 18.7161 17.554 18.603L17.47 18.53L12.569 13.63C11.6679 14.3611 10.6044 14.8653 9.46801 15.1C8.3316 15.3348 7.15544 15.2934 6.03836 14.9793C4.92129 14.6651 3.89594 14.0874 3.04848 13.2947C2.20103 12.502 1.55623 11.5175 1.16828 10.4238C0.780325 9.33021 0.660553 8.15943 0.819026 7.00989C0.9775 5.86035 1.40959 4.76565 2.07898 3.81778C2.74837 2.8699 3.63551 2.09655 4.66584 1.56272C5.69616 1.02889 6.83958 0.750178 7.99999 0.75ZM7.99999 2.25C7.24489 2.25 6.49718 2.39873 5.79956 2.68769C5.10194 2.97666 4.46806 3.4002 3.93412 3.93414C3.40019 4.46807 2.97664 5.10195 2.68768 5.79957C2.39872 6.49719 2.24999 7.2449 2.24999 8C2.24999 8.7551 2.39872 9.50281 2.68768 10.2004C2.97664 10.8981 3.40019 11.5319 3.93412 12.0659C4.46806 12.5998 5.10194 13.0233 5.79956 13.3123C6.49718 13.6013 7.24489 13.75 7.99999 13.75C9.52498 13.75 10.9875 13.1442 12.0659 12.0659C13.1442 10.9875 13.75 9.52499 13.75 8C13.75 6.47501 13.1442 5.01247 12.0659 3.93414C10.9875 2.8558 9.52498 2.25 7.99999 2.25Z" fill="white"/>
</svg>
